<?xml version="1.0" standalone="no"?>
<!DOCTYPE svg PUBLIC "-//W3C//DTD SVG 20010904//EN"
 "http://www.w3.org/TR/2001/REC-SVG-20010904/DTD/svg10.dtd">
<svg version="1.0" xmlns="http://www.w3.org/2000/svg"
 width="892.000000pt" height="450.000000pt" viewBox="0 0 892.000000 450.000000"
 preserveAspectRatio="xMidYMid meet">

<g transform="translate(0.000000,450.000000) scale(0.100000,-0.100000)"
fill="#000000" stroke="none">
<path d="M160 2215 l0 -2055 4280 0 4280 0 0 2055 0 2055 -4280 0 -4280 0 0
-2055z m5790 1525 l0 -500 -2885 0 -2885 0 0 493 c0 272 3 497 7 500 3 4 1302
7 2885 7 l2878 0 0 -500z m2750 0 l0 -500 -1360 0 -1360 0 0 500 0 500 1360 0
1360 0 0 -500z m-2750 -2045 l0 -1515 -2882 2 -2883 3 -3 1500 c-1 825 0 1506
3 1513 3 9 590 12 2885 12 l2880 0 0 -1515z m2748 3 l-3 -1513 -1357 -3 -1358
-2 0 1515 0 1515 1360 0 1360 0 -2 -1512z"/>
<path d="M2537 4038 c-122 -22 -200 -123 -200 -259 0 -82 27 -144 84 -192 48
-41 97 -57 178 -57 73 0 111 15 166 63 31 27 37 38 28 47 -9 10 -22 4 -58 -24
-108 -82 -224 -52 -256 66 -6 24 -9 83 -7 133 5 123 34 174 110 198 47 16 138
-48 170 -119 6 -13 17 -24 25 -24 10 0 13 21 13 85 0 68 -3 85 -15 85 -7 0
-18 -7 -23 -16 -8 -15 -13 -15 -58 -1 -71 22 -103 25 -157 15z"/>
<path d="M2965 3885 c-5 -2 -22 -6 -38 -9 -41 -9 -67 -41 -67 -81 0 -24 6 -37
20 -45 45 -24 90 18 68 65 -10 22 -9 28 3 36 41 26 79 -1 82 -60 l2 -44 -51
-17 c-104 -36 -144 -72 -144 -130 0 -61 92 -90 158 -50 32 20 32 20 52 0 24
-24 72 -26 105 -4 29 19 34 46 8 42 -16 -3 -19 10 -23 118 -6 142 -13 157 -91
173 -50 11 -66 12 -84 6z m73 -219 c5 -62 -52 -104 -78 -57 -13 25 1 64 32 85
31 22 42 16 46 -28z"/>
<path d="M3275 3878 c-50 -27 -65 -50 -65 -99 0 -41 4 -51 31 -74 18 -14 53
-37 79 -50 40 -20 60 -41 60 -60 0 -2 -7 -11 -16 -19 -35 -35 -102 -8 -124 50
-5 13 -16 24 -25 24 -12 0 -15 -13 -15 -60 0 -60 11 -75 36 -50 8 8 19 8 38 0
94 -35 176 13 176 104 0 45 -31 81 -100 116 -66 33 -76 50 -51 82 19 22 20 22
55 5 20 -9 42 -28 48 -42 19 -42 38 -31 38 23 0 53 -7 67 -25 52 -7 -6 -24 -6
-46 0 -43 13 -69 12 -94 -2z"/>
<path d="M3597 3876 c-49 -18 -64 -32 -89 -80 -16 -31 -19 -53 -16 -103 6 -96
57 -152 146 -161 90 -8 163 50 178 143 13 87 -41 184 -114 205 -47 13 -58 12
-105 -4z m90 -42 c21 -33 24 -215 4 -252 -17 -31 -61 -27 -78 8 -16 31 -17
188 -2 227 19 50 50 57 76 17z"/>
<path d="M7276 3906 c-78 -29 -128 -101 -142 -204 -14 -105 36 -172 128 -172
40 0 115 36 129 61 12 24 29 25 29 1 0 -52 60 -80 94 -43 19 21 41 90 31 99
-6 7 -13 -1 -42 -45 -12 -17 -13 -17 -33 6 -11 13 -20 34 -20 47 0 12 25 70
55 127 30 57 55 109 55 115 0 7 -13 12 -29 12 -25 0 -34 -8 -62 -57 l-33 -58
-7 34 c-14 70 -80 103 -153 77z m76 -37 c25 -14 48 -68 48 -116 0 -48 -60
-153 -101 -177 -27 -16 -32 -16 -54 -2 -32 21 -41 73 -25 145 27 125 75 180
132 150z"/>
<path d="M2769 3010 c-121 -20 -198 -109 -207 -237 -8 -113 46 -211 140 -253
48 -22 149 -26 209 -10 49 14 123 81 142 129 84 209 -68 407 -284 371z m86
-34 c55 -23 78 -80 83 -203 7 -164 -32 -243 -119 -243 -86 0 -138 107 -125
260 8 95 38 158 86 182 42 21 33 21 75 4z"/>
<path d="M792 3002 c-9 -6 -4 -14 17 -29 39 -29 162 -256 169 -310 8 -71 -5
-113 -39 -125 -57 -20 -27 -28 103 -28 134 0 145 5 86 34 -21 11 -23 19 -26
98 l-3 86 73 119 c41 65 84 122 96 128 41 18 16 30 -63 30 -81 0 -113 -17 -55
-28 42 -9 39 -27 -21 -130 l-52 -89 -48 92 c-57 107 -61 130 -23 130 16 0 24
5 22 13 -5 14 -215 22 -236 9z"/>
<path d="M1317 3003 c-11 -10 -8 -23 6 -23 39 -1 42 -14 47 -204 l5 -185 29
-30 c44 -46 102 -64 185 -59 82 4 116 24 146 84 17 33 20 64 23 207 4 166 4
168 28 179 13 6 24 17 24 25 0 19 -151 14 -158 -4 -2 -7 3 -13 12 -13 9 0 25
-9 36 -20 18 -18 20 -33 20 -157 0 -209 -24 -263 -115 -263 -101 0 -115 31
-115 249 0 170 6 191 51 191 10 0 19 7 19 15 0 12 -20 15 -118 15 -65 0 -122
-3 -125 -7z"/>
<path d="M1843 3004 c-16 -7 -17 -24 -1 -24 26 0 48 -40 138 -254 67 -160 100
-226 111 -226 11 0 34 46 78 163 102 264 121 306 142 312 10 4 19 13 19 21 0
12 -14 14 -72 12 -46 -2 -73 -7 -76 -15 -2 -8 5 -13 16 -13 46 0 45 -22 -9
-165 -28 -75 -55 -133 -59 -128 -18 21 -112 264 -107 278 4 8 18 15 33 15 16
0 24 5 22 13 -3 8 -37 13 -114 14 -60 1 -115 -1 -121 -3z"/>
<path d="M4240 2995 c0 -8 8 -15 18 -15 39 0 42 -17 42 -228 l0 -203 -30 -10
c-52 -19 -33 -29 55 -29 87 0 107 10 55 28 -17 7 -32 20 -35 34 -3 13 -4 95
-3 183 l3 160 85 -203 c61 -145 89 -201 100 -200 9 2 48 82 97 202 46 110 85
202 88 205 3 2 4 -78 3 -179 l-3 -185 -27 -13 c-52 -24 -30 -32 92 -32 122 0
144 8 93 32 l-28 13 -3 203 -2 204 30 11 c17 6 29 16 27 22 -5 16 -172 19
-184 3 -5 -7 -38 -82 -73 -165 -35 -84 -67 -153 -70 -153 -3 0 -34 69 -69 153
-35 83 -69 158 -74 165 -6 8 -39 12 -98 12 -72 0 -89 -3 -89 -15z"/>
<path d="M4930 2996 c0 -9 6 -16 14 -16 8 0 22 -10 30 -22 13 -18 16 -55 16
-199 0 -98 -3 -185 -6 -194 -4 -9 -17 -21 -30 -26 -53 -20 -22 -29 96 -29 122
0 144 8 93 32 -27 13 -28 16 -31 101 l-3 87 58 1 c97 1 156 33 178 97 24 69
-8 134 -80 162 -16 7 -99 14 -182 17 -138 5 -153 4 -153 -11z m270 -46 c19
-19 24 -47 21 -115 -2 -38 -42 -75 -82 -75 l-29 0 0 98 c0 54 3 102 7 105 14
14 64 6 83 -13z"/>
<path d="M3310 2853 c-8 -3 -23 -12 -32 -21 -16 -14 -18 -13 -18 1 0 14 -12
17 -75 17 -75 0 -93 -10 -55 -30 19 -10 20 -21 20 -215 0 -194 -1 -205 -20
-215 -41 -22 -19 -30 80 -30 60 0 100 4 100 10 0 6 -4 10 -9 10 -26 0 -41 34
-41 91 l0 60 30 -16 c97 -50 190 33 189 170 0 68 -21 118 -59 147 -27 20 -85
31 -110 21z m46 -78 c18 -44 18 -146 0 -190 -12 -27 -21 -35 -40 -35 -46 0
-56 23 -56 125 0 84 2 96 22 115 33 30 57 25 74 -15z"/>
<path d="M3623 2850 c-121 -37 -137 -270 -23 -332 39 -20 100 -24 133 -7 32
17 77 61 77 76 0 18 -7 16 -41 -8 -59 -42 -120 -9 -135 74 l-6 37 91 0 c91 0
91 0 91 25 0 36 -23 86 -53 113 -29 27 -86 36 -134 22z m77 -35 c6 -8 14 -32
17 -55 l6 -40 -47 0 c-45 0 -46 0 -46 33 0 58 42 96 70 62z"/>
<path d="M4050 2853 c-8 -3 -27 -15 -42 -25 -28 -19 -28 -19 -28 1 0 19 -6 21
-70 21 -70 0 -87 -10 -50 -30 18 -10 20 -21 20 -140 0 -119 -2 -130 -20 -140
-40 -21 -19 -30 70 -30 87 0 109 8 73 29 -16 8 -18 25 -18 120 0 98 2 112 20
125 24 19 47 20 63 4 19 -19 16 -232 -3 -248 -29 -24 -14 -30 70 -30 52 0 85
4 85 10 0 6 -7 13 -15 16 -12 5 -15 27 -15 108 0 112 -11 165 -39 190 -20 18
-77 29 -101 19z"/>
<path d="M2324 2696 c-14 -56 -6 -61 91 -61 l90 0 3 43 3 42 -90 0 c-88 0 -91
-1 -97 -24z"/>
<path d="M773 1999 c-58 -11 -94 -31 -136 -78 -38 -42 -67 -120 -67 -181 0
-103 67 -202 159 -235 58 -20 182 -19 246 3 l50 17 7 70 c7 69 22 95 55 95 7
0 13 5 13 10 0 6 -50 10 -130 10 -80 0 -130 -4 -130 -10 0 -5 9 -10 20 -10 11
0 30 -10 41 -21 18 -18 21 -30 17 -76 -5 -63 -16 -73 -75 -73 -88 0 -134 76
-134 224 0 135 24 196 86 222 19 8 47 11 63 8 41 -8 98 -58 122 -105 34 -67
50 -52 50 46 0 88 -7 100 -40 70 -15 -13 -22 -13 -56 -2 -56 20 -113 26 -161
16z"/>
<path d="M1500 1992 c-44 -36 -20 -102 36 -102 52 0 75 74 32 104 -29 20 -41
20 -68 -2z"/>
<path d="M2993 2000 c-190 -39 -269 -270 -146 -425 108 -137 370 -103 437 56
85 205 -78 413 -291 369z m92 -34 c54 -23 78 -80 83 -199 7 -163 -32 -247
-117 -247 -60 0 -96 37 -117 120 -34 133 2 286 76 322 42 21 33 21 75 4z"/>
<path d="M4470 1985 c0 -8 8 -15 19 -15 38 0 42 -20 39 -231 l-3 -203 -24 -6
c-14 -3 -26 -11 -29 -18 -3 -9 19 -12 82 -12 88 0 109 10 56 28 -17 7 -32 20
-35 34 -3 13 -4 95 -3 183 l3 160 85 -203 c61 -145 89 -201 100 -199 9 1 48
81 97 201 46 110 85 202 88 205 3 2 4 -78 3 -179 -3 -182 -3 -185 -26 -196
-59 -29 -48 -34 81 -34 128 0 151 7 100 32 l-28 13 -3 203 -2 204 30 11 c16 6
30 17 30 24 0 18 -173 18 -187 1 -6 -7 -38 -82 -73 -165 -35 -84 -67 -153 -70
-153 -3 0 -36 74 -75 165 l-69 165 -93 0 c-76 0 -93 -3 -93 -15z"/>
<path d="M5158 1994 c-13 -13 -9 -24 10 -24 39 0 42 -17 42 -228 l0 -203 -30
-10 c-57 -21 -29 -29 95 -29 127 0 149 7 98 32 -27 13 -28 16 -31 101 l-3 87
48 0 c71 0 123 18 160 55 29 29 33 40 33 83 0 61 -32 106 -88 122 -45 14 -324
26 -334 14z m271 -60 c15 -19 21 -41 21 -79 0 -65 -20 -93 -72 -102 l-38 -6 0
107 0 106 34 0 c25 0 40 -7 55 -26z"/>
<path d="M1335 1840 c-12 -4 -27 -15 -34 -24 -18 -22 -31 -20 -31 4 0 18 -7
20 -70 20 -38 0 -70 -3 -70 -8 0 -4 9 -15 20 -25 18 -15 20 -29 20 -142 0
-114 -2 -125 -20 -135 -41 -22 -19 -30 80 -30 100 0 121 7 76 28 -35 16 -49
121 -26 204 12 44 32 53 56 27 23 -25 70 -25 84 0 15 29 12 49 -10 71 -21 21
-42 24 -75 10z"/>
<path d="M1713 1834 c-17 -9 -39 -31 -48 -50 -31 -66 0 -117 103 -168 40 -20
52 -32 52 -49 0 -67 -89 -60 -126 9 -29 53 -44 44 -44 -26 0 -60 11 -75 36
-50 8 8 19 8 38 0 15 -5 45 -10 68 -10 57 0 108 51 108 108 0 52 -27 85 -100
122 -58 29 -74 48 -64 75 15 38 90 19 112 -29 19 -42 42 -33 42 17 0 50 -10
69 -29 58 -8 -5 -28 -5 -45 0 -43 13 -66 11 -103 -7z"/>
<path d="M2042 1843 c-42 -9 -89 -67 -102 -126 -27 -132 43 -233 158 -224 45
3 58 9 92 42 22 22 40 43 40 47 0 14 -21 9 -47 -12 -26 -20 -58 -25 -88 -14
-22 9 -45 57 -45 94 l0 30 90 0 90 0 -7 33 c-10 55 -30 95 -57 112 -27 18 -86
26 -124 18z m72 -39 c9 -9 16 -32 16 -55 l0 -39 -46 0 -47 0 7 42 c11 66 37
85 70 52z"/>
<path d="M2313 1830 c-39 -23 -53 -48 -53 -92 0 -47 22 -74 89 -107 31 -16 63
-36 70 -45 18 -22 4 -55 -26 -63 -37 -9 -74 15 -96 60 -10 20 -23 35 -28 31
-11 -6 -12 -124 -1 -124 4 0 12 4 18 9 5 5 29 5 60 -2 61 -12 98 -4 129 29 28
30 36 66 23 110 -7 27 -21 41 -61 63 -78 44 -97 60 -97 82 0 11 11 24 25 31
29 13 69 -8 87 -48 19 -41 38 -30 38 24 0 53 -7 67 -25 52 -7 -6 -24 -6 -46 0
-49 14 -70 12 -106 -10z"/>
<path d="M3540 1843 c-8 -3 -23 -12 -32 -21 -16 -14 -18 -13 -18 1 0 14 -12
17 -75 17 -75 0 -93 -10 -55 -30 19 -10 20 -21 20 -215 0 -194 -1 -205 -20
-215 -41 -22 -19 -30 80 -30 60 0 100 4 100 10 0 6 -4 10 -9 10 -26 0 -41 34
-41 91 l0 60 30 -16 c97 -50 190 33 189 170 0 68 -21 118 -59 147 -27 20 -85
31 -110 21z m46 -78 c18 -44 18 -146 0 -190 -12 -27 -21 -35 -40 -35 -46 0
-56 23 -56 126 0 81 3 97 20 114 31 31 59 26 76 -15z"/>
<path d="M3845 1836 c-89 -41 -123 -166 -72 -266 49 -99 192 -108 252 -16 25
38 9 51 -27 21 -43 -36 -85 -31 -115 14 -13 19 -23 47 -23 62 l0 29 91 0 92 0
-7 43 c-8 49 -26 80 -61 103 -34 22 -94 27 -130 10z m82 -28 c6 -7 13 -32 17
-55 l6 -43 -45 0 -45 0 0 39 c0 56 41 92 67 59z"/>
<path d="M4270 1839 c-13 -5 -33 -17 -42 -26 -17 -15 -18 -15 -18 5 0 20 -5
22 -70 22 -56 0 -70 -3 -70 -15 0 -8 6 -15 14 -15 22 0 26 -24 26 -146 0 -102
-2 -116 -20 -131 -11 -10 -20 -21 -20 -25 0 -5 41 -8 90 -8 50 0 90 3 90 8 0
4 -9 15 -20 25 -18 15 -20 29 -20 121 0 97 2 106 22 120 59 42 78 11 78 -123
0 -89 -2 -103 -20 -118 -11 -10 -20 -21 -20 -25 0 -5 41 -8 90 -8 50 0 90 2
90 5 0 3 -9 14 -20 25 -18 18 -20 33 -20 139 0 110 -2 122 -22 146 -26 29 -79
40 -118 24z"/>
<path d="M1440 1830 c0 -5 9 -14 20 -20 18 -10 20 -21 20 -140 0 -119 -2 -130
-20 -140 -40 -21 -19 -30 70 -30 89 0 104 6 75 30 -12 10 -15 41 -15 161 l0
149 -75 0 c-42 0 -75 -4 -75 -10z"/>
<path d="M2552 1668 l3 -43 88 -3 87 -3 0 46 0 45 -91 0 -90 0 3 -42z"/>
<path d="M1515 991 c-82 -20 -128 -96 -106 -178 14 -51 49 -83 146 -135 89
-48 109 -74 93 -119 -13 -36 -35 -49 -87 -49 -51 0 -104 44 -123 102 -25 74
-38 59 -38 -41 0 -72 3 -91 14 -91 8 0 16 5 18 11 3 8 14 8 43 0 67 -18 146
-14 195 12 78 39 100 133 50 214 -14 23 -44 45 -102 74 -100 50 -128 74 -128
110 0 31 40 69 72 69 43 0 102 -47 129 -104 23 -48 34 -35 37 43 3 79 -7 104
-32 79 -13 -13 -22 -14 -68 -2 -57 15 -68 16 -113 5z"/>
<path d="M2733 990 c-129 -27 -203 -119 -203 -255 0 -154 100 -255 252 -255
160 0 259 99 259 256 0 170 -142 288 -308 254z m93 -36 c22 -11 41 -31 56 -62
20 -41 23 -62 23 -162 0 -93 -4 -122 -19 -150 -26 -50 -55 -70 -102 -70 -35 0
-47 5 -72 34 -48 55 -66 181 -41 296 11 53 48 106 83 120 30 12 34 12 72 -6z"/>
<path d="M827 983 c-13 -12 -7 -23 12 -23 38 0 42 -20 39 -231 l-3 -203 -24
-6 c-14 -3 -26 -11 -29 -18 -3 -9 27 -12 122 -12 128 0 158 10 96 31 l-30 11
0 99 0 100 83 -3 82 -3 3 -76 c3 -89 -8 -126 -39 -131 -12 -2 -24 -9 -27 -15
-3 -10 26 -13 122 -13 128 0 150 7 99 32 l-28 13 -3 203 -2 204 30 11 c16 6
30 17 30 25 0 17 -241 13 -247 -5 -2 -6 6 -13 19 -15 32 -4 48 -43 48 -120 l0
-68 -85 0 -85 0 0 83 c0 86 8 107 42 107 10 0 18 7 18 15 0 12 -20 15 -118 15
-65 0 -122 -3 -125 -7z"/>
<path d="M1797 984 c-13 -13 -7 -24 12 -24 38 0 42 -20 39 -231 l-3 -203 -24
-6 c-14 -3 -26 -11 -29 -18 -3 -9 46 -12 210 -12 l214 0 13 80 c14 81 8 111
-13 76 -59 -98 -86 -118 -166 -124 -58 -4 -60 -4 -71 24 -6 18 -9 94 -7 205 3
189 8 209 55 209 15 0 23 5 21 13 -5 13 -238 24 -251 11z"/>
<path d="M4210 978 c0 -8 14 -19 30 -25 l30 -11 -2 -204 -3 -203 -27 -13 c-48
-23 -31 -32 57 -32 47 0 85 4 85 8 0 5 -15 15 -32 23 l-33 14 -2 180 -2 180
86 -203 c60 -139 91 -202 101 -200 8 2 50 90 96 200 44 108 84 200 89 204 11
11 9 -334 -3 -356 -5 -10 -21 -21 -35 -24 -14 -4 -25 -11 -25 -16 0 -6 50 -10
126 -10 95 0 125 3 122 12 -3 7 -15 15 -28 18 -35 8 -42 56 -38 246 3 168 10
194 49 194 11 0 19 7 19 15 0 12 -17 15 -94 15 l-94 0 -67 -160 c-38 -89 -71
-163 -75 -165 -4 -2 -38 69 -76 158 l-69 162 -92 3 c-72 2 -93 0 -93 -10z"/>
<path d="M4896 982 c-3 -6 6 -17 21 -24 l28 -13 0 -210 0 -209 -24 -6 c-14 -3
-26 -11 -29 -18 -3 -9 27 -12 122 -12 127 0 150 7 99 32 -27 13 -28 16 -31
101 l-3 87 48 0 c71 0 123 18 160 55 28 28 33 40 33 83 0 59 -25 97 -79 119
-45 19 -335 32 -345 15z m269 -46 c14 -10 20 -30 23 -77 5 -78 -13 -106 -70
-116 l-38 -6 0 107 0 106 33 0 c18 0 42 -6 52 -14z"/>
<path d="M3258 821 c-31 -25 -38 -26 -38 -6 0 12 -14 15 -70 15 -70 0 -87 -10
-50 -30 19 -10 20 -21 20 -215 0 -194 -1 -205 -20 -215 -41 -22 -19 -30 80
-30 101 0 121 7 75 28 -23 11 -25 17 -25 77 l0 65 34 -16 c123 -59 234 115
167 263 -34 73 -120 105 -173 64z m58 -52 c28 -31 28 -187 0 -218 -21 -23 -56
-27 -74 -9 -8 8 -12 48 -12 114 0 95 2 104 22 118 30 21 41 20 64 -5z"/>
<path d="M3585 826 c-89 -40 -123 -166 -72 -266 49 -99 192 -108 252 -16 25
38 9 51 -27 21 -58 -49 -121 -17 -135 68 l-6 37 93 0 93 0 -7 43 c-16 100
-103 152 -191 113z m82 -28 c6 -7 13 -32 17 -55 l6 -43 -45 0 -45 0 0 39 c0
56 41 92 67 59z"/>
<path d="M3988 816 c-36 -24 -38 -24 -38 -6 0 18 -7 20 -70 20 -38 0 -70 -3
-70 -8 0 -4 9 -15 20 -25 18 -15 20 -29 20 -137 0 -108 -2 -122 -20 -137 -11
-10 -20 -21 -20 -25 0 -5 41 -8 90 -8 50 0 90 3 90 8 0 4 -9 15 -20 25 -18 15
-20 29 -20 121 0 97 2 106 22 120 59 42 78 11 78 -123 0 -89 -2 -103 -20 -118
-11 -10 -20 -21 -20 -25 0 -5 41 -8 90 -8 50 0 90 3 90 8 0 4 -9 15 -20 25
-18 15 -20 29 -20 136 0 110 -2 122 -23 146 -33 39 -91 44 -139 11z"/>
<path d="M2290 655 l0 -45 90 0 90 0 0 45 0 45 -90 0 -90 0 0 -45z"/>
<path d="M6444 2981 c-111 -67 -116 -376 -8 -455 37 -26 103 -32 145 -12 71
34 120 168 104 289 -9 72 -50 154 -89 178 -41 25 -111 25 -152 0z m120 -25
c33 -32 49 -119 44 -240 -4 -114 -23 -166 -65 -185 -37 -17 -73 11 -96 75 -23
64 -19 248 7 309 29 68 69 83 110 41z"/>
<path d="M6976 2979 c-27 -21 -56 -68 -56 -91 0 -6 17 5 38 25 45 44 98 51
132 17 43 -43 14 -112 -63 -152 l-42 -22 42 -7 c57 -10 80 -24 98 -59 30 -58
9 -127 -45 -150 -28 -12 -37 -11 -76 8 -54 27 -80 28 -89 5 -10 -27 29 -53 79
-53 151 0 243 112 192 235 -8 18 -26 41 -40 50 l-26 17 25 30 c44 52 33 132
-22 157 -41 19 -117 14 -147 -10z"/>
<path d="M7702 2980 c-43 -26 -92 -130 -62 -130 5 0 16 13 25 29 24 48 43 61
90 61 36 0 48 -5 69 -31 55 -65 26 -142 -105 -288 -49 -54 -89 -102 -89 -105
0 -3 65 -6 144 -6 l144 0 16 40 c24 61 21 78 -9 46 -23 -24 -30 -26 -115 -26
-49 0 -90 4 -90 8 0 4 29 37 65 72 146 144 173 255 79 329 -36 28 -116 29
-162 1z"/>
<path d="M8049 2961 c-23 -23 -39 -48 -39 -62 0 -22 2 -21 38 14 45 44 98 51
132 17 43 -43 14 -112 -63 -152 l-42 -22 42 -7 c57 -10 80 -24 98 -59 29 -56
10 -125 -40 -148 -35 -16 -44 -15 -88 8 -45 24 -75 26 -84 3 -17 -43 73 -66
162 -42 118 33 165 185 80 264 l-32 31 23 28 c43 49 31 131 -23 155 -13 6 -47
11 -75 11 -45 0 -54 -4 -89 -39z"/>
<path d="M7286 2957 c-35 -84 -31 -95 16 -50 25 24 39 28 103 31 41 2 81 2 89
-1 12 -5 1 -46 -55 -214 -38 -114 -69 -211 -69 -216 0 -5 12 -7 26 -5 25 3 30
16 100 228 40 124 73 233 74 243 0 15 -13 17 -135 17 l-135 0 -14 -33z"/>
<path d="M6766 2574 c-34 -33 -8 -82 38 -70 32 8 40 42 15 67 -23 23 -33 24
-53 3z"/>
<path d="M7022 1989 c-38 -8 -68 -32 -88 -71 -24 -47 -15 -53 24 -16 49 48 96
54 132 18 43 -43 14 -112 -63 -152 l-42 -22 42 -7 c57 -10 80 -24 98 -59 30
-58 9 -127 -45 -150 -28 -12 -37 -11 -76 8 -54 27 -80 28 -89 5 -16 -44 71
-67 160 -42 119 33 165 185 80 265 -33 31 -33 31 -14 50 42 43 40 132 -3 155
-35 19 -80 26 -116 18z"/>
<path d="M7382 1989 c-40 -8 -80 -43 -98 -86 -28 -66 -11 -86 21 -27 24 45 66
65 109 53 51 -15 71 -43 70 -98 -1 -63 -34 -120 -135 -229 -44 -46 -79 -88
-79 -93 0 -5 64 -9 143 -9 l143 0 18 50 c10 28 16 53 14 55 -3 3 -15 -6 -28
-20 -22 -23 -30 -25 -118 -25 l-94 0 81 86 c114 120 145 189 118 263 -21 60
-94 95 -165 80z"/>
<path d="M7753 1989 c-50 -10 -83 -36 -104 -82 -10 -23 -19 -48 -19 -54 0 -23
19 -14 35 16 24 48 43 61 90 61 36 0 48 -5 69 -31 55 -65 26 -142 -105 -288
-49 -54 -89 -102 -89 -105 0 -3 65 -6 144 -6 l144 0 16 40 c24 61 21 78 -9 46
-23 -24 -30 -26 -115 -26 -49 0 -90 3 -90 6 0 4 35 44 78 89 83 87 111 134
119 195 12 88 -72 159 -164 139z"/>
<path d="M6444 1971 c-82 -50 -114 -253 -60 -382 49 -117 190 -133 258 -28 32
50 53 159 43 232 -10 76 -47 153 -87 177 -43 26 -113 26 -154 1z m114 -16 c37
-26 55 -111 50 -239 -4 -124 -21 -175 -65 -195 -23 -10 -31 -9 -52 7 -44 32
-62 101 -58 227 6 176 52 250 125 200z"/>
<path d="M8060 1952 c-69 -68 -89 -207 -50 -334 27 -88 73 -128 148 -128 90 0
153 88 160 226 6 108 -16 184 -68 236 -35 35 -42 38 -95 38 -53 0 -60 -3 -95
-38z m137 -4 c34 -38 47 -96 47 -213 0 -91 -4 -118 -22 -158 -36 -82 -91 -82
-132 -2 -21 44 -24 61 -24 165 1 85 5 125 18 155 33 77 73 96 113 53z"/>
<path d="M6766 1565 c-19 -19 -21 -46 -4 -63 19 -19 45 -14 62 10 13 19 14 25
2 43 -18 26 -40 30 -60 10z"/>
<path d="M6487 982 c-40 -5 -92 -62 -112 -123 -22 -66 -22 -187 0 -254 56
-166 235 -167 292 -1 11 33 17 81 17 136 0 165 -75 257 -197 242z m70 -37 c33
-23 53 -104 53 -212 0 -153 -28 -223 -90 -223 -62 0 -96 94 -88 249 9 163 56
234 125 186z"/>
<path d="M7021 980 c-41 -10 -87 -55 -97 -95 l-7 -30 36 36 c41 42 73 51 115
34 72 -31 51 -119 -41 -167 l-42 -22 40 -6 c54 -8 82 -25 100 -60 30 -58 9
-127 -45 -150 -28 -12 -37 -11 -76 8 -53 26 -82 28 -91 5 -17 -43 73 -66 162
-42 119 33 165 185 80 265 -33 31 -33 31 -14 50 45 46 40 133 -9 157 -40 21
-73 25 -111 17z"/>
<path d="M7737 976 c-48 -18 -62 -29 -82 -72 -21 -45 -10 -58 18 -20 11 16 36
35 54 43 43 17 81 2 102 -42 13 -26 12 -33 -5 -64 -12 -21 -35 -43 -61 -55
-49 -24 -54 -36 -15 -36 40 0 91 -36 108 -76 19 -44 5 -94 -33 -124 -33 -25
-52 -25 -107 1 -49 24 -76 20 -76 -11 0 -44 120 -53 195 -14 99 51 120 179 42
250 l-34 31 29 32 c39 43 38 92 -1 132 -16 16 -38 29 -49 29 -11 0 -26 2 -34
5 -7 2 -30 -2 -51 -9z"/>
<path d="M8205 976 c-90 -28 -166 -102 -195 -189 -18 -56 -9 -173 16 -221 31
-61 65 -81 134 -81 66 0 102 20 134 75 24 41 25 134 2 178 -28 54 -102 80
-166 58 -22 -7 -40 -12 -40 -10 0 2 10 25 21 49 27 57 87 109 145 126 24 7 44
17 44 21 0 12 -49 9 -95 -6z m8 -247 c24 -26 27 -37 27 -98 0 -54 -4 -74 -21
-95 -25 -31 -77 -36 -102 -8 -46 51 -64 183 -29 214 39 35 84 30 125 -13z"/>
<path d="M7383 952 c-61 -30 -67 -43 -20 -40 l32 3 3 -183 c3 -196 -2 -222
-43 -222 -14 0 -25 -4 -25 -10 0 -6 40 -10 100 -10 55 0 100 4 100 9 0 5 -12
11 -27 13 l-28 3 -3 233 c-3 264 3 251 -89 204z"/>
<path d="M6766 555 c-19 -19 -21 -46 -4 -63 19 -19 45 -14 62 10 13 19 14 25
2 43 -18 26 -40 30 -60 10z"/>
</g>
</svg>
